<?xml version="1.0" encoding="iso-8859-1"?>
<!-- Uploaded to: SVG Repo, www.svgrepo.com, Generator: SVG Repo Mixer Tools -->
<!DOCTYPE svg PUBLIC "-//W3C//DTD SVG 1.1//EN" "http://www.w3.org/Graphics/SVG/1.1/DTD/svg11.dtd">
<svg fill="#000000" version="1.1" id="Capa_1" xmlns="http://www.w3.org/2000/svg" xmlns:xlink="http://www.w3.org/1999/xlink" 
	 width="800px" height="800px" viewBox="0 0 49.644 49.645"
	 xml:space="preserve">
<g>
	<path d="M43.042,8.029c-1.846-0.116-10.771-0.75-18.206-7.995c0-0.029,0-0.044,0-0.028c-0.005,0.005-0.01,0.01-0.015,0.014
		c-0.005-0.004-0.01-0.009-0.015-0.014c0-0.016,0-0.001,0,0.028C17.373,7.279,8.447,7.914,6.602,8.029
		c-0.808,11.543,2.31,26.55,2.31,26.55s6.444,10.472,15.886,15.043c0.001,0.006,0.002,0.019,0.004,0.022
		c0.007-0.004,0.013-0.007,0.02-0.011c0.007,0.004,0.013,0.007,0.02,0.011c0.001-0.005,0.003-0.018,0.004-0.022
		c9.441-4.571,15.886-15.043,15.886-15.043S43.849,19.573,43.042,8.029z M21.26,32.211l2.474-8.944
		c-1.563-0.685-2.564-2.212-2.564-3.927c0-2.361,1.921-4.283,4.283-4.283c2.362,0,4.284,1.922,4.284,4.283
		c0,1.516-0.805,2.921-2.107,3.691l2.385,9.18H21.26z"/>
</g>
</svg>